<svg xmlns="http://www.w3.org/2000/svg" viewBox="0 0 1200 630" fill="none">
  <rect width="1200" height="630" fill="#0a0f14"/>
  <g transform="translate(80,200)">
    <path d="M30 32 C16 26, 8 16, 12 6 C18 12, 24 20, 30 26 C34 18, 40 10, 50 4 C44 12, 38 20, 34 28 Z" fill="#00a3d4" opacity="0.25"/>
    <path d="M30 32 C16 26, 8 16, 12 6 C18 12, 24 20, 30 26 C34 18, 40 10, 50 4 C44 12, 38 20, 34 28" stroke="#00a3d4" stroke-width="2" fill="none"/>
    <path d="M30 32 C44 26, 52 16, 48 6 C42 12, 36 20, 30 26 C26 18, 20 10, 10 4 C16 12, 22 20, 26 28 Z" fill="#00a3d4" opacity="0.25"/>
    <path d="M30 32 C44 26, 52 16, 48 6 C42 12, 36 20, 30 26 C26 18, 20 10, 10 4 C16 12, 22 20, 26 28" stroke="#00a3d4" stroke-width="2" fill="none"/>
    <path d="M22 28 L42 28 L42 34 C42 35.5, 40.5 36, 39 36 L25 36 C23.5 36, 22 35.5, 22 34 Z" fill="#00d4aa"/>
    <text x="56" y="30" font-family="Inter,-apple-system,sans-serif" font-size="48" font-weight="700" fill="#e0e8f0">Talio</text>
  </g>
  <text x="80" y="400" font-family="Inter,-apple-system,sans-serif" font-size="64" font-weight="700" fill="#e0e8f0">Search the Nous Research Discord</text>
  <text x="80" y="460" font-family="Inter,-apple-system,sans-serif" font-size="28" fill="#7a8a9a">300K+ messages · 6K contributors · 4 channels</text>
  <text x="80" y="510" font-family="Inter,-apple-system,sans-serif" font-size="22" fill="#00a3d4">Hermes Agent · Developers · Community Projects</text>
</svg>
